<svg width="114" height="114" viewBox="0 0 114 114" fill="none" xmlns="http://www.w3.org/2000/svg">
<rect width="114" height="114" rx="57" fill="#219653"/>
<g clip-path="url(#clip0)">
<path d="M92.8795 91.3413L90.4835 81.4282C92.0409 68.5649 91.9211 45.9065 90.4835 32.9251L92.8795 22.8941C93.4785 20.6518 91.3221 18.6456 89.0459 19.2357L81.2589 21.2419C69.0392 19.3537 44.1208 18.9996 32.3803 21.0059L24.8329 19.1177C22.6765 18.5276 20.5201 20.5338 21.1191 22.776L23.5151 32.8071L23.6349 32.6891C22.0775 45.6705 21.9577 68.0928 23.6349 81.0742L21.1191 91.3413C20.5201 93.5835 22.6765 95.5897 24.9527 94.9996L32.7397 92.9934C44.8396 95.3537 69.3986 95.4717 81.6183 93.1114L89.1657 95.1177C91.4419 95.5897 93.4785 93.5835 92.8795 91.3413Z" fill="#FFAE0D"/>
<path d="M74.9095 38H39.209V74.4658H74.9095V38Z" fill="#FFDAA8"/>
<path d="M66.7718 51.7627C68.0873 46.4434 64.7763 41.0807 59.3763 39.7848C53.9764 38.4889 48.5325 41.7506 47.2169 47.0699C45.9014 52.3892 49.2125 57.7519 54.6124 59.0478C60.0123 60.3437 65.4563 57.0821 66.7718 51.7627Z" fill="white"/>
<path d="M50.8306 54.7578C57.2998 61.2485 60.774 45.0808 60.774 45.0808C60.774 45.0808 44.2416 48.2671 50.8306 54.7578Z" fill="#66C30F"/>
<path d="M51.0704 54.4038C51.4298 54.7578 60.295 45.4348 60.295 45.4348C60.295 45.4348 50.711 54.0497 51.0704 54.4038Z" fill="#378F00"/>
<path d="M60.654 55.8199C66.644 58.6522 64.847 46.969 64.847 46.969C64.847 46.969 54.6639 53.1056 60.654 55.8199Z" fill="#66C30F"/>
<path d="M60.7742 55.5839C61.1336 55.8199 64.7276 47.441 64.7276 47.441C64.7276 47.441 60.4148 55.3479 60.7742 55.5839Z" fill="#378F00"/>
<path d="M52.2674 43.7826C53.5852 49.4472 61.0128 41.8944 61.0128 41.8944C61.0128 41.8944 50.9496 38.118 52.2674 43.7826Z" fill="#66C30F"/>
<path d="M52.5071 43.6646C52.5071 44.0187 60.6536 41.8944 60.6536 41.8944C60.6536 41.8944 52.3873 43.3106 52.5071 43.6646Z" fill="#378F00"/>
<path d="M76.9462 72.9317H37.0527L38.9695 67.0311L37.0527 61.0124H76.9462L75.0294 67.0311L76.9462 72.9317Z" fill="#FF1414"/>
<path d="M42.0847 69.0373C41.9649 69.0373 41.7253 69.0373 41.6055 69.0373V65.0249H44.1213C44.1213 65.1429 44.1213 65.2609 44.1213 65.3789C44.1213 65.7329 44.0015 65.8509 43.6421 65.8509H42.9233H42.5639C42.5639 65.969 42.5639 66.205 42.5639 66.323V66.677H42.6837H43.8817C43.8817 66.795 43.8817 66.9131 43.8817 67.0311C43.8817 67.1491 43.8817 67.2671 43.8817 67.3851H42.6837H42.5639V69.0373C42.4441 69.0373 42.2045 69.0373 42.0847 69.0373Z" fill="white"/>
<path d="M47.5953 68.5652C47.5953 68.9193 47.3557 69.0373 46.9963 69.0373H45.4388C45.0794 69.0373 44.8398 68.8013 44.8398 68.4472V65.0249H47.4755C47.4755 65.1429 47.4755 65.2609 47.4755 65.3789C47.4755 65.4969 47.4755 65.6149 47.3557 65.8509H46.1576H45.7982C45.7982 65.969 45.7982 66.087 45.7982 66.323V66.795C45.918 66.795 46.1576 66.795 46.1576 66.795H47.1161C47.1161 66.9131 47.1161 67.0311 47.1161 67.1491C47.1161 67.2671 47.1161 67.3851 47.1161 67.5031H46.1576H45.7982V67.9752C45.7982 68.0932 45.7982 68.2112 45.7982 68.4472C45.918 68.4472 46.0378 68.4472 46.2774 68.4472H47.7151C47.5953 68.3292 47.5953 68.4472 47.5953 68.5652Z" fill="white"/>
<path d="M50.4712 67.3851C50.7108 67.5031 50.8306 67.6211 50.9504 67.9752L51.19 68.4472C51.19 68.6832 51.3098 68.8013 51.5494 68.9193C51.4296 69.0373 51.19 69.1553 50.9504 69.1553C50.591 69.1553 50.4712 68.9193 50.3514 68.5652L50.1118 67.9752C49.992 67.7391 49.8722 67.6211 49.6326 67.6211H49.393V69.1553C49.2732 69.1553 49.0336 69.1553 48.9138 69.1553C48.794 69.1553 48.5544 69.1553 48.4346 69.1553V65.0249C48.9138 65.0249 49.393 65.0249 49.8722 65.0249C50.7108 65.0249 51.3098 65.3789 51.3098 66.323C51.19 66.795 50.8306 67.1491 50.4712 67.3851ZM49.1534 66.795C49.393 66.795 49.5128 66.795 49.6326 66.795C50.1118 66.795 50.2316 66.559 50.2316 66.205C50.2316 65.8509 50.1118 65.6149 49.6326 65.6149C49.5128 65.6149 49.393 65.6149 49.1534 65.6149V66.795Z" fill="white"/>
<path d="M52.5072 65.7329C52.3874 65.7329 52.2676 65.7329 52.1478 65.7329H51.5488C51.5488 65.6149 51.5488 65.4969 51.5488 65.3789C51.5488 65.2609 51.5488 65.1429 51.5488 65.0249H54.5438C54.5438 65.1429 54.5438 65.2609 54.5438 65.3789C54.5438 65.7329 54.424 65.8509 54.0646 65.8509H53.9448C53.825 65.8509 53.7052 65.8509 53.5854 65.8509C53.5854 65.969 53.5854 66.087 53.5854 66.323V69.1553C53.4656 69.1553 53.226 69.1553 53.1062 69.1553C52.9864 69.1553 52.7468 69.1553 52.627 69.1553V65.7329H52.5072Z" fill="white"/>
<path d="M54.9033 65.0249C55.0231 65.0249 55.2627 65.0249 55.3825 65.0249C55.5023 65.0249 55.7419 65.0249 55.8617 65.0249V69.0373C55.7419 69.0373 55.5023 69.0373 55.3825 69.0373C55.2627 69.0373 55.0231 69.0373 54.9033 69.0373V65.0249Z" fill="white"/>
<path d="M59.3361 68.2112C59.3361 68.3292 59.3361 68.4472 59.3361 68.5652C59.3361 68.9193 59.0965 69.0373 58.7371 69.0373H57.4193C57.0599 69.0373 56.8203 68.8013 56.8203 68.4472V64.9068H57.1797C57.5391 64.9068 57.7787 65.1429 57.7787 65.4969V68.2112C58.0183 68.2112 58.1381 68.2112 58.3777 68.2112H59.3361Z" fill="white"/>
<path d="M59.9346 65.0249C60.0544 65.0249 60.294 65.0249 60.4138 65.0249C60.5336 65.0249 60.7732 65.0249 60.893 65.0249V69.0373C60.7732 69.0373 60.5336 69.0373 60.4138 69.0373C60.294 69.0373 60.0544 69.0373 59.9346 69.0373V65.0249Z" fill="white"/>
<path d="M63.0499 66.323C63.1697 66.205 63.4093 65.8509 63.5291 65.7329C63.2895 65.7329 62.8103 65.7329 62.5707 65.7329H61.7321C61.7321 65.6149 61.7321 65.4969 61.7321 65.3789C61.7321 65.2609 61.7321 65.0249 61.8519 64.9068H64.4875C64.6073 65.3789 64.6073 65.3789 64.6073 65.4969C64.6073 65.6149 64.6073 65.7329 64.4875 65.8509L63.1697 67.6211C63.0499 67.7391 62.8103 67.9752 62.6905 68.2112C62.9301 68.2112 63.2895 68.2112 63.6489 68.2112H64.0083C64.2479 68.2112 64.4875 68.0932 64.7271 68.0932C64.7271 68.2112 64.8469 68.3292 64.8469 68.5652C64.8469 68.9193 64.6073 69.0373 64.2479 69.0373H61.7321C61.6123 68.5652 61.6123 68.5652 61.6123 68.4472C61.6123 68.3292 61.6123 68.2112 61.7321 68.0932L63.0499 66.323Z" fill="white"/>
<path d="M68.0816 68.5652C68.0816 68.9193 67.842 69.0373 67.4826 69.0373H65.9252C65.5658 69.0373 65.3262 68.8013 65.3262 68.4472V65.0249H67.9618C67.9618 65.1429 67.9618 65.2609 67.9618 65.3789C67.9618 65.4969 67.9618 65.6149 67.842 65.8509H66.644H66.2846C66.2846 65.969 66.2846 66.087 66.2846 66.323V66.795C66.4044 66.795 66.644 66.795 66.644 66.795H67.6024C67.6024 66.9131 67.6024 67.0311 67.6024 67.1491C67.6024 67.2671 67.6024 67.3851 67.6024 67.5031H66.644H66.2846V67.9752C66.2846 68.0932 66.2846 68.2112 66.2846 68.4472C66.4044 68.4472 66.5242 68.4472 66.7638 68.4472H68.2014C68.0816 68.3292 68.0816 68.4472 68.0816 68.5652Z" fill="white"/>
<path d="M70.9565 67.3851C71.1961 67.5031 71.3159 67.6211 71.4357 67.9752L71.6753 68.4472C71.6753 68.6832 71.7951 68.8013 72.0347 68.9193C71.9149 69.0373 71.6753 69.1553 71.4357 69.1553C71.0763 69.1553 70.9565 68.9193 70.8367 68.5652L70.5971 67.9752C70.4773 67.7391 70.3575 67.6211 70.1179 67.6211H69.8783V69.1553C69.7585 69.1553 69.5189 69.1553 69.3991 69.1553C69.2793 69.1553 69.0397 69.1553 68.9199 69.1553V65.0249C69.3991 65.0249 69.8783 65.0249 70.3575 65.0249C71.1961 65.0249 71.7951 65.3789 71.7951 66.323C71.6753 66.795 71.3159 67.1491 70.9565 67.3851ZM69.7585 66.795C69.9981 66.795 70.1179 66.795 70.2377 66.795C70.7169 66.795 70.8367 66.559 70.8367 66.205C70.8367 65.8509 70.7169 65.6149 70.2377 65.6149C70.1179 65.6149 69.9981 65.6149 69.7585 65.6149V66.795Z" fill="white"/>
<path d="M87.6084 34.1056C91.5618 52.1615 88.2074 80.1304 88.2074 80.1304C88.2074 80.1304 90.3638 55.7019 87.6084 34.1056Z" fill="#825907"/>
<path d="M27.2298 80.1304C23.2764 62.0745 26.6308 34.1056 26.6308 34.1056C26.6308 34.1056 24.5942 58.5342 27.2298 80.1304Z" fill="#825907"/>
<path d="M86.4111 41.8944C88.9269 41.8944 90.4843 41.3044 90.4843 41.3044C90.4843 41.3044 87.7289 40.1242 86.4111 41.8944Z" fill="#825907"/>
<path d="M86.5303 49.4472C89.0461 49.4472 90.6035 48.8571 90.6035 48.8571C90.6035 48.8571 87.8481 47.677 86.5303 49.4472Z" fill="#825907"/>
<path d="M86.8896 58.2981C89.4055 58.2981 90.9629 57.8261 90.9629 57.8261C90.9629 57.8261 88.2075 56.646 86.8896 58.2981Z" fill="#825907"/>
<path d="M86.5303 67.0311C88.9263 67.5031 90.6035 67.2671 90.6035 67.2671C90.6035 67.2671 88.2075 65.6149 86.5303 67.0311Z" fill="#825907"/>
<path d="M85.5723 75.528C87.9683 76 89.6455 75.764 89.6455 75.764C89.6455 75.764 87.2495 73.9938 85.5723 75.528Z" fill="#825907"/>
<path d="M28.1875 73.5217C25.6717 73.5217 24.1143 74.1118 24.1143 74.1118C24.1143 74.1118 26.7499 75.2919 28.1875 73.5217Z" fill="#825907"/>
<path d="M27.9482 65.9689C25.4324 65.9689 23.875 66.559 23.875 66.559C23.875 66.559 26.6304 67.7391 27.9482 65.9689Z" fill="#825907"/>
<path d="M27.709 57.118C25.1931 57.118 23.6357 57.5901 23.6357 57.5901C23.6357 57.5901 26.2713 58.7702 27.709 57.118Z" fill="#825907"/>
<path d="M28.0683 48.3851C25.6723 47.913 23.9951 48.1491 23.9951 48.1491C23.9951 48.1491 26.3911 49.8012 28.0683 48.3851Z" fill="#825907"/>
<path d="M28.9062 39.8882C26.5102 39.4162 24.833 39.6522 24.833 39.6522C24.833 39.6522 27.229 41.4224 28.9062 39.8882Z" fill="#825907"/>
<path d="M34.2979 24.3106C52.6273 20.4162 81.02 23.7205 81.02 23.7205C81.02 23.7205 56.3411 21.5963 34.2979 24.3106Z" fill="#825907"/>
<path d="M41.0068 25.1367C41.0068 22.6584 40.4078 21.1242 40.4078 21.1242C40.4078 21.1242 39.2098 23.8385 41.0068 25.1367Z" fill="#825907"/>
<path d="M48.6738 25.0186C48.6738 22.5404 48.0748 21.0062 48.0748 21.0062C48.0748 21.0062 46.8768 23.7205 48.6738 25.0186Z" fill="#825907"/>
<path d="M57.7781 24.7826C57.7781 22.3043 57.2989 20.7702 57.2989 20.7702C57.2989 20.7702 55.9811 23.3665 57.7781 24.7826Z" fill="#825907"/>
<path d="M66.6439 25.1367C67.1231 22.7764 66.8835 21.1242 66.8835 21.1242C66.8835 21.1242 65.0865 23.3665 66.6439 25.1367Z" fill="#825907"/>
<path d="M75.1496 25.9627C75.6288 23.6025 75.3892 21.9503 75.3892 21.9503C75.3892 21.9503 73.712 24.3106 75.1496 25.9627Z" fill="#825907"/>
<path d="M80.6606 88.8633C62.3312 92.7578 33.9385 89.4534 33.9385 89.4534C33.9385 89.4534 58.7371 91.4596 80.6606 88.8633Z" fill="#825907"/>
<path d="M73.9512 87.9193C73.9512 90.3975 74.5502 91.9317 74.5502 91.9317C74.5502 91.9317 75.7482 89.2174 73.9512 87.9193Z" fill="#825907"/>
<path d="M66.2842 88.1553C66.2842 90.6335 66.8832 92.1677 66.8832 92.1677C66.8832 92.1677 68.0812 89.4534 66.2842 88.1553Z" fill="#825907"/>
<path d="M57.2988 88.3913C57.2988 90.8696 57.778 92.4037 57.778 92.4037C57.778 92.4037 58.976 89.8074 57.2988 88.3913Z" fill="#825907"/>
<path d="M48.4343 88.0373C47.9551 90.3975 48.1947 92.0497 48.1947 92.0497C48.1947 92.0497 49.8719 89.6894 48.4343 88.0373Z" fill="#825907"/>
<path d="M39.8083 87.0932C39.3291 89.4534 39.5687 91.1056 39.5687 91.1056C39.5687 91.1056 41.3657 88.8633 39.8083 87.0932Z" fill="#825907"/>
<rect x="41" y="64" width="32" height="6" fill="#FF1414"/>
<path d="M50.5494 64.4012L48.7178 70H47.3261L46.0943 66.2088L44.8226 70H43.4389L41.5993 64.4012H42.943L44.2067 68.3364L45.5264 64.4012H46.7262L48.0059 68.3683L49.3096 64.4012H50.5494ZM56.4965 64.4012V70H55.2008V67.7045H52.6573V70H51.3616V64.4012H52.6573V66.6087H55.2008V64.4012H56.4965ZM62.2451 68.9602V70H57.91V64.4012H62.1411V65.441H59.1977V66.6567H61.7972V67.6645H59.1977V68.9602H62.2451ZM67.0521 68.8003H64.4527L63.9568 70H62.6291L65.1245 64.4012H66.4043L68.9077 70H67.548L67.0521 68.8003ZM66.6442 67.8165L65.7564 65.6729L64.8686 67.8165H66.6442ZM70.456 65.457H68.6644V64.4012H73.5434V65.457H71.7518V70H70.456V65.457Z" fill="white"/>
</g>
<defs>
<clipPath id="clip0">
<rect width="72" height="76" fill="white" transform="translate(21 19)"/>
</clipPath>
</defs>
</svg>
