<svg width="114" height="114" viewBox="0 0 114 114" fill="none" xmlns="http://www.w3.org/2000/svg">
<rect width="114" height="114" rx="57" fill="#219653"/>
<g clip-path="url(#clip0)">
<path d="M67.6998 44.3C67.6998 47.6 63.3998 50.3 57.9998 50.3C52.5998 50.3 48.2998 47.6 48.2998 44.3C48.2998 41 52.5998 38.3 57.9998 38.3C63.2998 38.4 67.6998 41 67.6998 44.3Z" fill="#6B3320"/>
<path d="M101.5 44.3C101.5 47.6 97.1996 50.3 91.7996 50.3C86.3996 50.3 82.0996 47.6 82.0996 44.3C82.0996 41 86.3996 38.3 91.7996 38.3C97.0996 38.4 101.5 41 101.5 44.3Z" fill="#6B3320"/>
<path d="M84.4996 44.3C84.4996 47.6 80.1996 50.3 74.7996 50.3C69.3996 50.3 65.0996 47.6 65.0996 44.3C65.0996 41 69.3996 38.3 74.7996 38.3C80.1996 38.4 84.4996 41 84.4996 44.3Z" fill="#6B3320"/>
<path d="M75.9996 46.9C75.9996 50.2 71.6996 52.9 66.2996 52.9C60.8996 52.9 56.5996 50.2 56.5996 46.9C56.5996 43.6 60.8996 40.9 66.2996 40.9C71.6996 41 75.9996 43.6 75.9996 46.9Z" fill="#853F27"/>
<path d="M92.4 46.9C92.4 50.2 88.1 52.9 82.7 52.9C77.3 52.9 73 50.2 73 46.9C73 43.6 77.3 40.9 82.7 40.9C88 41 92.4 43.6 92.4 46.9Z" fill="#B35534"/>
<path d="M97.7998 65H21.2998V71H97.7998V65Z" fill="#242424"/>
<path d="M103.1 45.5H46.5996V65H103.1V45.5Z" fill="#FFAD49"/>
<path d="M103.1 61.4H46.5996V64.5H103.1V61.4Z" fill="#FFCD6A"/>
<path d="M103.1 53.5H46.5996V57.2H103.1V53.5Z" fill="#FFCD6A"/>
<path d="M103.1 46.2H46.5996V49.9H103.1V46.2Z" fill="#FFCD6A"/>
<path d="M78.0996 81.2C81.9656 81.2 85.0996 78.066 85.0996 74.2C85.0996 70.334 81.9656 67.2 78.0996 67.2C74.2336 67.2 71.0996 70.334 71.0996 74.2C71.0996 78.066 74.2336 81.2 78.0996 81.2Z" fill="#0A0A0A"/>
<path d="M78.0996 78.7C80.5849 78.7 82.5996 76.6853 82.5996 74.2C82.5996 71.7147 80.5849 69.7 78.0996 69.7C75.6143 69.7 73.5996 71.7147 73.5996 74.2C73.5996 76.6853 75.6143 78.7 78.0996 78.7Z" fill="#B3B3B3"/>
<path d="M78.0994 77.4C79.8667 77.4 81.2994 75.9673 81.2994 74.2C81.2994 72.4327 79.8667 71 78.0994 71C76.3321 71 74.8994 72.4327 74.8994 74.2C74.8994 75.9673 76.3321 77.4 78.0994 77.4Z" fill="#575757"/>
<path d="M87.1 73.6L89.2 72.8L85.7 64.2H70.2L67 72.8L69 73.6L71.7 66.3H84.3L87.1 73.6Z" fill="#575757"/>
<path d="M46.6996 52.5H45.0996V65.1H46.6996V52.5Z" fill="#0A0A0A"/>
<path d="M31.4004 81.2C35.2664 81.2 38.4004 78.066 38.4004 74.2C38.4004 70.334 35.2664 67.2 31.4004 67.2C27.5344 67.2 24.4004 70.334 24.4004 74.2C24.4004 78.066 27.5344 81.2 31.4004 81.2Z" fill="#0A0A0A"/>
<path d="M31.4004 78.7C33.8857 78.7 35.9004 76.6853 35.9004 74.2C35.9004 71.7147 33.8857 69.7 31.4004 69.7C28.9151 69.7 26.9004 71.7147 26.9004 74.2C26.9004 76.6853 28.9151 78.7 31.4004 78.7Z" fill="#B3B3B3"/>
<path d="M31.4002 77.4C33.1675 77.4 34.6002 75.9673 34.6002 74.2C34.6002 72.4327 33.1675 71 31.4002 71C29.6329 71 28.2002 72.4327 28.2002 74.2C28.2002 75.9673 29.6329 77.4 31.4002 77.4Z" fill="#575757"/>
<path d="M24.1998 36H45.0998V73.6H40.8998L38.3998 65.8C37.3998 65.8 31.3998 65.9 31.3998 65.9L24.7998 65.6L23.0998 73.5H11.2998V48.9C11.2998 41.8 17.0998 36 24.1998 36Z" fill="#FF6565"/>
<path d="M14.8998 48.8H30.4998C30.6998 48.8 30.8998 48.6 30.8998 48.4V38.6C30.8998 38.4 30.6998 38.2 30.4998 38.2H23.3998C18.4998 38.2 14.5998 42.2 14.5998 47V48.3C14.4998 48.6 14.6998 48.8 14.8998 48.8Z" fill="#3A83B0"/>
<path d="M27.6996 52.5H30.1996C30.4996 52.5 30.7996 52.3 30.7996 51.9C30.7996 51.6 30.5996 51.3 30.1996 51.3H27.6996C27.3996 51.3 27.0996 51.5 27.0996 51.9C27.1996 52.2 27.3996 52.5 27.6996 52.5Z" fill="#700909"/>
<path d="M39.4004 59.3C40.2288 59.3 40.9004 58.9418 40.9004 58.5C40.9004 58.0582 40.2288 57.7 39.4004 57.7C38.572 57.7 37.9004 58.0582 37.9004 58.5C37.9004 58.9418 38.572 59.3 39.4004 59.3Z" fill="#FF7B00"/>
<path d="M41.9002 48.8H33.9002C33.5002 48.8 33.2002 48.5 33.2002 48.1V38.9C33.2002 38.5 33.5002 38.2 33.9002 38.2H41.9002C42.3002 38.2 42.6002 38.5 42.6002 38.9V48.1C42.6002 48.5 42.3002 48.8 41.9002 48.8Z" fill="#C43737"/>
<path d="M10.8 72.8H19.3C19.6 72.8 20 72.3 20.1 72L22.5 65.9C22.5 65.5 22.1 65.1 21.7 65.1H10.8C10.4 65 10 65.4 10 65.8V72C10 72.4 10.4 72.8 10.8 72.8Z" fill="#0A0A0A"/>
<path d="M12.7002 60.4C12.7002 62.3 13.6002 63.9 14.7002 63.9C15.8002 63.9 16.7002 62.4 16.7002 60.4C16.7002 58.5 15.8002 56.9 14.7002 56.9C13.6002 57 12.7002 58.5 12.7002 60.4Z" fill="#540606"/>
<path d="M12.9004 60.4C12.9004 61.9 13.6004 63.1 14.5004 63.1C15.4004 63.1 16.1004 61.9 16.1004 60.4C16.1004 58.9 15.4004 57.7 14.5004 57.7C13.6004 57.7 12.9004 58.9 12.9004 60.4Z" fill="#EBD7A5"/>
<path d="M40.9002 73.6L42.9002 72.8L39.5002 64.2H23.9002L20.7002 72.8L22.8002 73.6L25.4002 66.3H38.0002L40.9002 73.6Z" fill="#575757"/>
<path d="M104.2 48.8H103.2V65.1H104.2V48.8Z" fill="#522D00"/>
</g>
<defs>
<clipPath id="clip0">
<rect width="94.1" height="45.2" fill="white" transform="translate(10 36)"/>
</clipPath>
</defs>
</svg>
